# xmcd CD database file
#
# Track frame offsets:
#	150
#	16090
#	35069
#	54355
#	70493
#	83536
#	99138
#	118436
#	139132
#	155635
#	175469
#	193440
#	213296
#	241988
#	263858
#	285558
#	303440
#
# Disc length: 4435 seconds
#
# Revision: 0
# Processed by: cddbd v1.5.1PL0 Copyright (c) Steve Scherf et al.
# Submitted via: Feurio! 1.68 - http://www.feurio.com
#
DISCID=f6115111
DTITLE=Eagles - The Copmplete Greatest Hits CD1 (Remastered)
DYEAR=1900
DGENRE=
TTITLE0=Take It Easy
TTITLE1=Witchy Woman
TTITLE2=Peacful Easy Feeling
TTITLE3=Desperado
TTITLE4=Tequila Sunrise
TTITLE5=Doolin-Dalton
TTITLE6=Already Gone
TTITLE7=The Best Of My Love
TTITLE8=James Dean
TTITLE9=Ol' 55
TTITLE10=Midnight Flyer
TTITLE11=On The Border
TTITLE12=Lyin' Eyes
TTITLE13=One Of These Nights
TTITLE14=Take It To The Limit
TTITLE15=After The Thrill Is Gone
TTITLE16=Hotel California
EXTD=
EXTT0=
EXTT1=
EXTT2=
EXTT3=
EXTT4=
EXTT5=
EXTT6=
EXTT7=
EXTT8=
EXTT9=
EXTT10=
EXTT11=
EXTT12=
EXTT13=
EXTT14=
EXTT15=
EXTT16=
PLAYORDER=
